# xmcd
#
# Track frame offsets: 
#        150
#        18262
#        41888
#        62094
#        82162
#        106813
#        131281
#        154298
#        181563
#        208267
#        230878
#        256992
#        278043
#        305010
#        330053
#
# Disc length: 4743 seconds
#
# Revision: 2
# Processed by: cddbd v1.5.2PL0 Copyright (c) Steve Scherf et al.
# Submitted via: ExactAudioCopyFreeDBPlugin 1.0
#
DISCID=cb12850f
DTITLE=Teddy Pendergrass - Significant Singles:  The R&B Chart Hits and 
DTITLE=Flips, 1977-84
DYEAR=2000
DGENRE=SMB
TTITLE0=I Don't Love You Anymore
TTITLE1=Somebody Told Me
TTITLE2=The Whole Town's Laughing at Me
TTITLE3=The More I Get, the More I Want
TTITLE4=Close the Door
TTITLE5=Get Up, Get Down, Get Funky, Get Loose
TTITLE6=Only You
TTITLE7=It Don't Hurt Now
TTITLE8=Turn Off the Lights
TTITLE9=If You Know Like I Know
TTITLE10=Come Go with Me
TTITLE11=Do Me
TTITLE12=Shout and Scream
TTITLE13=Its You I Love
TTITLE14=Where Did All the Lovin' Go
EXTD=
EXTT0=
EXTT1=
EXTT2=
EXTT3=
EXTT4=
EXTT5=
EXTT6=
EXTT7=
EXTT8=
EXTT9=
EXTT10=
EXTT11=
EXTT12=
EXTT13=
EXTT14=
PLAYORDER=
